<?xml version="1.0" encoding="utf-8"?>
<!-- Generator: Adobe Illustrator 17.0.0, SVG Export Plug-In . SVG Version: 6.00 Build 0)  -->
<!DOCTYPE svg PUBLIC "-//W3C//DTD SVG 1.1//EN" "http://www.w3.org/Graphics/SVG/1.1/DTD/svg11.dtd">
<svg version="1.1" id="圖層_1" xmlns="http://www.w3.org/2000/svg" xmlns:xlink="http://www.w3.org/1999/xlink" x="0px" y="0px"
	 width="138.5px" height="138.5px" viewBox="0 0 138.5 138.5" enable-background="new 0 0 138.5 138.5" xml:space="preserve">
<g id="圖層_1_1_">
	<g>
		<path fill="#FFFFFF" d="M34.864,29.673h7.301v-4.036h-7.301l1.119-1.119c0.788-0.788,0.788-2.065,0-2.853s-2.065-0.788-2.853,0
			l-4.564,4.564c-0.788,0.788-0.788,2.065,0,2.853l4.564,4.565c0.394,0.394,0.91,0.591,1.427,0.591c0.516,0,1.032-0.197,1.427-0.591
			c0.788-0.787,0.788-2.065,0-2.853L34.864,29.673z"/>
		<path fill="#FFFFFF" d="M61.636,25.637h-7.299v4.036h7.299l-1.12,1.12c-0.788,0.788-0.788,2.066,0,2.853
			c0.394,0.394,0.91,0.591,1.427,0.591c0.516,0,1.033-0.197,1.427-0.591l4.564-4.565c0.788-0.788,0.788-2.065,0-2.853l-4.564-4.564
			c-0.788-0.788-2.065-0.788-2.853,0c-0.788,0.788-0.788,2.065,0,2.853L61.636,25.637z"/>
		<path fill="#FFFFFF" d="M45.113,15.389l1.119-1.119v7.3h4.036v-7.3l1.119,1.119c0.394,0.394,0.91,0.591,1.427,0.591
			c0.516,0,1.033-0.197,1.427-0.591c0.788-0.787,0.788-2.065,0-2.853l-4.564-4.565c-0.757-0.757-2.096-0.757-2.853,0l-4.564,4.565
			c-0.788,0.788-0.788,2.066,0,2.853C43.048,16.177,44.325,16.177,45.113,15.389z"/>
		<path fill="#FFFFFF" d="M51.387,39.921l-1.119,1.119v-7.3h-4.036v7.3l-1.119-1.119c-0.788-0.788-2.065-0.788-2.853,0
			c-0.788,0.788-0.788,2.065,0,2.853l4.564,4.564c0.394,0.394,0.91,0.591,1.427,0.591s1.032-0.197,1.427-0.591l4.564-4.564
			c0.788-0.788,0.788-2.065,0-2.853C53.452,39.133,52.175,39.133,51.387,39.921z"/>
		<path fill="#FFFFFF" d="M92.438,33.509H78.689c-12.278,0-22.267,9.988-22.267,22.266v53.95c0,12.277,9.988,22.266,22.267,22.266
			h13.749c12.277,0,22.266-9.989,22.266-22.266v-53.95C114.704,43.497,104.715,33.509,92.438,33.509z M110.704,109.724
			c0,10.072-8.194,18.266-18.266,18.266H78.689c-10.072,0-18.267-8.194-18.267-18.266v-53.95c0-5.511,2.464-10.449,6.336-13.801
			c-0.141,0.573-0.224,1.17-0.224,1.786v18.327c0,4.13,3.348,7.478,7.478,7.478s7.478-3.348,7.478-7.478l-0.571-24.579h11.519
			c10.071,0,18.266,8.194,18.266,18.266C110.704,55.773,110.704,109.724,110.704,109.724z"/>
	</g>
</g>
<g id="圖層_2" display="none">
	<g display="inline">
		<path fill="#3E3A39" d="M56.882,26.583c1.114,0,2.018-0.904,2.018-2.018v-7.607c0-1.114-0.904-2.018-2.018-2.018
			c-1.114,0-2.018,0.904-2.018,2.018v7.607C54.864,25.679,55.768,26.583,56.882,26.583z"/>
		<path fill="#3E3A39" d="M46.729,36.736c0-1.114-0.903-2.018-2.018-2.018h-7.607c-1.114,0-2.018,0.903-2.018,2.018
			c0,1.114,0.904,2.018,2.018,2.018h7.607C45.825,38.754,46.729,37.85,46.729,36.736z"/>
		<path fill="#3E3A39" d="M46.849,29.556c0.394,0.394,0.91,0.591,1.427,0.591c0.516,0,1.033-0.197,1.427-0.591
			c0.788-0.788,0.788-2.065,0-2.853l-5.086-5.086c-0.788-0.788-2.065-0.788-2.853,0c-0.788,0.788-0.788,2.065,0,2.853L46.849,29.556
			z"/>
		<path fill="#3E3A39" d="M81.834,33.676h-13.75c-12.277,0-22.266,9.988-22.266,22.266v53.95c0,12.277,9.988,22.266,22.266,22.266
			h13.75c12.277,0,22.266-9.989,22.266-22.266v-53.95C104.1,43.664,94.112,33.676,81.834,33.676z M100.1,109.891
			c0,10.072-8.194,18.266-18.266,18.266h-13.75c-10.071,0-18.266-8.194-18.266-18.266v-53.95c0-5.511,2.464-10.449,6.336-13.801
			c-0.141,0.573-0.224,1.17-0.224,1.787v18.327c0,4.13,3.348,7.478,7.478,7.478s7.478-3.348,7.478-7.478l-0.571-24.579h11.519
			c10.071,0,18.266,8.194,18.266,18.266V109.891z"/>
	</g>
</g>
<g id="圖層_3" display="none">
	<g display="inline">
		<path fill="#3E3A39" d="M62.469,64.314v-5.47l1.119,1.119c0.394,0.394,0.91,0.591,1.427,0.591c0.516,0,1.033-0.197,1.427-0.591
			c0.788-0.787,0.788-2.065,0-2.853l-4.564-4.565c-0.757-0.757-2.096-0.757-2.853,0L54.46,57.11c-0.788,0.788-0.788,2.066,0,2.853
			c0.788,0.788,2.065,0.788,2.853,0l1.119-1.119v5.47v1.83v5.47l-1.119-1.119c-0.788-0.788-2.065-0.788-2.853,0
			c-0.788,0.788-0.788,2.065,0,2.853l4.564,4.564c0.394,0.394,0.91,0.591,1.427,0.591s1.033-0.197,1.427-0.591l4.564-4.564
			c0.788-0.788,0.788-2.065,0-2.853c-0.788-0.788-2.065-0.788-2.853,0l-1.119,1.119v-5.47L62.469,64.314L62.469,64.314z"/>
		<path fill="#3E3A39" d="M81.497,33.536h-13.75c-12.277,0-22.266,9.989-22.266,22.266v53.95c0,12.277,9.989,22.266,22.266,22.266
			h13.75c12.277,0,22.266-9.988,22.266-22.266v-53.95C103.763,43.525,93.774,33.536,81.497,33.536z M99.763,109.753
			c0,10.072-8.194,18.266-18.266,18.266h-13.75c-10.072,0-18.266-8.194-18.266-18.266v-53.95c0-10.072,8.194-18.266,18.266-18.266
			h13.75c10.072,0,18.266,8.194,18.266,18.266V109.753z"/>
		<path fill="#3E3A39" d="M74.736,45.06c-2.066,0-3.742,1.675-3.742,3.742v15.646c0,2.066,1.675,3.742,3.742,3.742
			c2.066,0,3.742-1.675,3.742-3.742V48.801C78.478,46.735,76.803,45.06,74.736,45.06z"/>
	</g>
</g>
<g id="圖層_4" display="none">
	<g display="inline">
		<path fill="#3E3A39" d="M32.982,49.834h7.301v-4.036h-7.301l1.119-1.119c0.788-0.788,0.788-2.065,0-2.853s-2.065-0.788-2.853,0
			l-4.564,4.564c-0.788,0.788-0.788,2.065,0,2.853l4.564,4.565c0.394,0.394,0.91,0.591,1.427,0.591c0.516,0,1.032-0.197,1.427-0.591
			c0.788-0.787,0.788-2.065,0-2.853L32.982,49.834z"/>
		<path fill="#3E3A39" d="M58.635,53.807c0.394,0.394,0.91,0.591,1.427,0.591c0.516,0,1.033-0.197,1.427-0.591l4.564-4.565
			c0.788-0.788,0.788-2.065,0-2.853l-4.564-4.564c-0.788-0.788-2.065-0.788-2.853,0c-0.788,0.788-0.788,2.065,0,2.853l1.119,1.119
			h-7.299v4.036h7.299l-1.12,1.12C57.847,51.742,57.847,53.02,58.635,53.807z"/>
		<path fill="#3E3A39" d="M43.232,35.55l1.119-1.119v7.3h4.036v-7.3l1.119,1.119c0.394,0.394,0.91,0.591,1.427,0.591
			c0.516,0,1.033-0.197,1.427-0.591c0.788-0.787,0.788-2.065,0-2.853l-4.564-4.565c-0.757-0.757-2.096-0.757-2.853,0l-4.564,4.565
			c-0.788,0.788-0.788,2.066,0,2.853C41.167,36.339,42.443,36.339,43.232,35.55z"/>
		<path fill="#3E3A39" d="M49.506,60.083l-1.119,1.119v-7.3h-4.036v7.3l-1.119-1.119c-0.788-0.788-2.065-0.788-2.853,0
			c-0.788,0.788-0.788,2.065,0,2.853l4.564,4.564c0.394,0.394,0.91,0.591,1.427,0.591s1.033-0.197,1.427-0.591l4.564-4.564
			c0.788-0.788,0.788-2.065,0-2.853C51.571,59.294,50.294,59.294,49.506,60.083z"/>
		<path fill="#3E3A39" d="M110.105,76.367c-0.794-3.891-2.735-5.984-5.768-6.22c-1.089-0.082-2.068,0.09-2.922,0.352
			c-0.738-2.827-3.306-4.923-6.362-4.923c-1.415,0-2.723,0.453-3.798,1.216c-1.197-1.654-3.138-2.737-5.332-2.737
			c-0.902,0-1.762,0.183-2.546,0.513V46.295c0-3.629-2.952-6.582-6.581-6.582c-3.63,0-6.581,2.953-6.581,6.582v27.558l-4.92,1.333
			c-3.872,1.05-6.619,4.586-6.68,8.599c-0.053,3.554,0.014,6.28,0.199,8.102c0.727,7.196,4.895,12.812,7.937,16.914
			c1.781,2.401,3.464,4.669,3.464,5.957h4.036c0-2.622-1.88-5.155-4.258-8.362c-2.916-3.931-6.548-8.825-7.163-14.916
			c-0.167-1.644-0.229-4.285-0.179-7.635c0.034-2.224,1.555-4.182,3.701-4.764l3.864-1.047v12.381h4.036v-44.12
			c0-1.404,1.143-2.546,2.546-2.546s2.546,1.142,2.546,2.546v24.343v1.521v7.607h4.036v-7.607v-1.521
			c0-1.404,1.143-2.547,2.546-2.547c1.405,0,2.548,1.143,2.548,2.547v1.521v7.607h4.036v-7.607c0-1.404,1.143-2.547,2.546-2.547
			s2.546,1.143,2.546,2.547v9.129h4.036v-6.551c0.557-0.311,1.408-0.655,2.388-0.566c0.576,0.044,1.539,0.119,2.128,3.003
			c2.779,13.623-0.806,25.674-2.729,32.148c-0.759,2.548-1.259,4.232-1.259,5.436h4.036c0-0.617,0.554-2.482,1.092-4.285
			C109.317,103.66,113.086,90.98,110.105,76.367z"/>
	</g>
</g>
<g id="圖層_5" display="none">
	<g display="inline">
		<path fill="#3E3A39" d="M73.088,47.692c0,1.114,0.904,2.018,2.018,2.018h7.606c1.114,0,2.018-0.904,2.018-2.018
			c0-1.114-0.903-2.018-2.018-2.018h-7.606C73.992,45.675,73.088,46.578,73.088,47.692z"/>
		<path fill="#3E3A39" d="M62.934,37.539c1.114,0,2.018-0.904,2.018-2.018v-7.607c0-1.114-0.904-2.018-2.018-2.018
			c-1.114,0-2.018,0.904-2.018,2.018v7.607C60.916,36.636,61.82,37.539,62.934,37.539z"/>
		<path fill="#3E3A39" d="M52.781,47.692c0-1.114-0.903-2.018-2.018-2.018h-7.607c-1.114,0-2.018,0.903-2.018,2.018
			c0,1.114,0.904,2.018,2.018,2.018h7.607C51.878,49.71,52.781,48.807,52.781,47.692z"/>
		<path fill="#3E3A39" d="M71.54,41.104c0.516,0,1.033-0.197,1.427-0.591l5.087-5.086c0.788-0.787,0.788-2.065,0-2.853
			c-0.788-0.788-2.065-0.788-2.853,0l-5.087,5.086c-0.788,0.787-0.788,2.065,0,2.853C70.508,40.907,71.024,41.104,71.54,41.104z"/>
		<path fill="#3E3A39" d="M52.901,40.513c0.394,0.394,0.91,0.591,1.427,0.591c0.516,0,1.033-0.197,1.427-0.591
			c0.788-0.788,0.788-2.065,0-2.853l-5.086-5.086c-0.788-0.788-2.065-0.788-2.853,0c-0.788,0.788-0.788,2.065,0,2.853L52.901,40.513
			z"/>
		<path fill="#3E3A39" d="M96.243,77.766c-0.793-3.892-2.733-5.984-5.767-6.221c-1.096-0.088-2.074,0.08-2.926,0.34
			c-0.743-2.82-3.308-4.91-6.359-4.91c-1.414,0-2.723,0.453-3.797,1.215c-1.197-1.655-3.138-2.737-5.332-2.737
			c-0.902,0-1.762,0.183-2.546,0.513V47.692c0-3.629-2.953-6.582-6.583-6.582c-3.629,0-6.581,2.953-6.581,6.582V75.25l-4.918,1.333
			c-3.873,1.05-6.62,4.585-6.681,8.598c-0.053,3.543,0.014,6.269,0.199,8.103c0.728,7.196,4.895,12.812,7.937,16.914
			c1.78,2.401,3.463,4.669,3.463,5.957h4.036c0-2.622-1.879-5.155-4.258-8.362c-2.916-3.931-6.546-8.825-7.162-14.916
			c-0.169-1.654-0.231-4.295-0.179-7.635c0.033-2.224,1.556-4.182,3.702-4.764l3.862-1.047v12.381h4.036v-44.12
			c0-1.404,1.142-2.546,2.546-2.546s2.547,1.142,2.547,2.546v24.343v1.521v7.607h4.036v-7.607v-1.521
			c0-1.404,1.142-2.547,2.546-2.547s2.547,1.143,2.547,2.547v1.521v7.607h4.036v-7.607c0-1.404,1.142-2.546,2.546-2.546
			s2.547,1.142,2.547,2.546v9.129h4.036v-6.546c0.558-0.309,1.41-0.652,2.389-0.571c0.576,0.044,1.538,0.119,2.125,3.003
			c2.781,13.624-0.803,25.675-2.728,32.148c-0.758,2.548-1.258,4.232-1.258,5.436h4.036c0-0.617,0.555-2.482,1.091-4.285
			C95.454,105.058,99.224,92.378,96.243,77.766z"/>
	</g>
</g>
<g id="圖層_6" display="none">
	<g display="inline">
		<path fill="#3E3A39" d="M101.685,76.234c-1.03-0.372-2.023-0.484-2.91-0.461c0.014-1.151-0.269-2.29-0.851-3.318
			c-0.868-1.529-2.279-2.629-3.974-3.097c-1.331-0.367-2.712-0.304-3.985,0.158c-0.714-1.912-2.296-3.47-4.409-4.054
			c-0.938-0.258-1.901-0.298-2.835-0.142l3.154-10.859l0.037-0.012c3.207-1.006,5.802-3.214,7.31-6.217
			c3.039-6.058,0.581-13.46-5.477-16.498c-6.053-3.037-13.457-0.582-16.497,5.476c-2.24,4.467-1.531,9.842,1.724,13.579
			L62.817,80.591c-1.05-0.254-2.583-1-3.681-3.144c-0.1-0.195-0.174-0.371-0.261-0.556c1.801-3.015,2.247-6.593,1.182-9.985
			c-0.985-3.141-3.134-5.71-6.052-7.234c-2.917-1.524-6.254-1.82-9.394-0.835c-6.483,2.034-10.103,8.963-8.069,15.447
			c1.355,4.317,4.959,7.495,9.292,8.384c0.189,1.329,0.391,2.782,0.588,4.379c1.029,8.343,5.878,13.378,9.417,17.055
			c2.932,3.044,4.564,4.865,4.013,6.861l3.89,1.074c1.19-4.31-1.815-7.431-4.995-10.734c-3.494-3.629-7.455-7.742-8.319-14.75
			c-0.235-1.904-0.48-3.618-0.698-5.147c-0.483-3.396-0.983-6.908-0.508-7.699c0.237-0.394,0.73-0.654,1.32-0.695
			c0.44-0.046,1.606,0.029,2.622,1.28c0.528,0.649,0.83,1.402,1.248,2.444c0.309,0.771,0.65,1.613,1.131,2.553
			c3.073,6,8.668,5.457,8.901,5.436l1.276-0.14L77.459,50.12l0.226-0.217l-0.112-0.116l1.051-3.086
			c0.181-0.655,0.607-1.201,1.198-1.537c0.592-0.336,1.278-0.42,1.934-0.24c0.656,0.181,1.202,0.607,1.538,1.198
			c0.335,0.591,0.421,1.278,0.246,1.908l-8.503,29.276l1.938,0.563l1.914,0.638l2.46-7.381c0.181-0.655,0.606-1.2,1.198-1.536
			c0.592-0.335,1.278-0.422,1.934-0.24c0.655,0.181,1.201,0.607,1.537,1.198c0.335,0.591,0.421,1.278,0.239,1.934l-0.404,1.465
			v0.001l-0.313,1.136l-0.877,3.177l0,0l-0.429,1.554l3.89,1.074l0.987-3.578l0.633-2.292c0.182-0.654,0.607-1.199,1.197-1.534
			c0.594-0.335,1.279-0.419,1.935-0.239c0.655,0.181,1.201,0.607,1.537,1.198c0.335,0.591,0.421,1.278,0.24,1.934l-1.793,6.495
			l3.89,1.074l1.104-4.001c0.62-0.148,1.534-0.252,2.457,0.081c0.479,0.173,1.599,0.578,1.26,3.353
			c-1.475,12.063-9.278,21.364-13.939,26.922c-2.211,2.635-3.545,4.226-3.933,5.633l3.889,1.079
			c0.194-0.611,1.757-2.474,3.136-4.118c4.949-5.9,13.233-15.775,14.854-29.026C106.211,78.68,103.41,76.858,101.685,76.234z
			 M50.258,68.986c-1.902,0.135-3.582,1.122-4.496,2.643c-0.9,1.498-0.898,3.518-0.526,6.65c-2.268-0.908-4.085-2.783-4.844-5.203
			c-0.662-2.112-0.463-4.356,0.562-6.319c1.026-1.962,2.753-3.407,4.865-4.07c2.115-0.663,4.358-0.463,6.319,0.562
			c1.961,1.025,3.407,2.752,4.07,4.864c0.402,1.282,0.482,2.604,0.265,3.877c-0.061-0.081-0.109-0.162-0.174-0.243
			C54.764,69.858,52.504,68.833,50.258,68.986z M82.83,41.034c-1.698-0.467-3.471-0.248-4.999,0.62
			c-1.529,0.867-2.629,2.278-3.062,3.859l-0.13,0.383c-0.905-2.176-0.881-4.686,0.217-6.877c2.041-4.068,7.013-5.716,11.08-3.677
			c1.971,0.988,3.44,2.686,4.134,4.779c0.695,2.093,0.533,4.331-0.456,6.303c-0.539,1.073-1.289,1.99-2.194,2.719l0.004-0.013
			c0.468-1.695,0.248-3.47-0.62-4.999C85.936,42.602,84.525,41.502,82.83,41.034z"/>
		<path fill="#3E3A39" d="M56.568,38.737c0.447,0,0.898-0.148,1.272-0.452l6.846-5.565l-0.162,1.576
			c-0.114,1.108,0.691,2.1,1.8,2.214c0.07,0.008,0.14,0.011,0.209,0.011c1.022,0,1.899-0.772,2.005-1.811l0.661-6.414
			c0.014-0.135,0.015-0.271,0.002-0.407c-0.005-0.048-0.018-0.093-0.026-0.14c-0.014-0.082-0.025-0.165-0.049-0.245
			c-0.019-0.062-0.047-0.119-0.072-0.178c-0.025-0.062-0.045-0.125-0.077-0.185c-0.058-0.11-0.127-0.213-0.204-0.31
			c-0.005-0.007-0.008-0.014-0.014-0.021s-0.013-0.012-0.019-0.019c-0.079-0.095-0.165-0.183-0.261-0.262
			c-0.053-0.044-0.111-0.077-0.167-0.115c-0.053-0.035-0.102-0.075-0.158-0.105c-0.076-0.041-0.156-0.07-0.235-0.101
			c-0.043-0.016-0.082-0.038-0.126-0.052c-0.13-0.04-0.262-0.068-0.397-0.081l-6.416-0.661c-1.11-0.122-2.101,0.692-2.214,1.8
			c-0.114,1.108,0.691,2.1,1.8,2.214l1.575,0.162l-6.845,5.565c-0.865,0.702-0.996,1.973-0.293,2.838
			C55.4,38.483,55.982,38.737,56.568,38.737z"/>
		<path fill="#3E3A39" d="M34.413,55.791c0.053,0.027,0.108,0.048,0.163,0.069c0.075,0.03,0.15,0.056,0.229,0.077
			c0.062,0.016,0.124,0.028,0.188,0.039c0.041,0.007,0.079,0.021,0.12,0.025l6.421,0.662c0.07,0.008,0.14,0.011,0.209,0.011
			c1.022,0,1.898-0.772,2.005-1.811c0.114-1.108-0.692-2.1-1.8-2.214l-1.576-0.162l6.845-5.565c0.865-0.703,0.996-1.974,0.293-2.839
			c-0.702-0.865-1.972-0.997-2.839-0.293l-6.844,5.565l0.162-1.576c0.114-1.108-0.692-2.1-1.8-2.214
			c-1.109-0.13-2.101,0.692-2.214,1.8l-0.661,6.415c-0.014,0.135-0.014,0.27-0.002,0.405c0.005,0.048,0.018,0.093,0.026,0.14
			c0.014,0.082,0.025,0.165,0.049,0.245c0.018,0.061,0.047,0.118,0.071,0.177c0.026,0.063,0.046,0.127,0.078,0.188
			c0.055,0.105,0.122,0.202,0.194,0.295c0.009,0.011,0.014,0.024,0.023,0.035c0.003,0.003,0.006,0.005,0.008,0.008
			c0.088,0.107,0.188,0.203,0.296,0.29c0.041,0.033,0.086,0.059,0.129,0.088C34.26,55.703,34.333,55.751,34.413,55.791z"/>
	</g>
</g>
<g id="圖層_7" display="none">
	<g display="inline">
		<path fill="#3E3A39" d="M113.025,41.432c0.015-0.026,0.022-0.054,0.036-0.08c0.035-0.068,0.065-0.136,0.092-0.207
			c0.021-0.056,0.041-0.112,0.057-0.169c0.019-0.067,0.033-0.134,0.045-0.203c0.011-0.062,0.019-0.122,0.024-0.184
			c0.005-0.067,0.006-0.133,0.004-0.201c-0.001-0.065-0.005-0.128-0.013-0.192c-0.008-0.063-0.019-0.126-0.033-0.189
			c-0.015-0.07-0.034-0.137-0.056-0.205c-0.01-0.031-0.013-0.062-0.025-0.092l-3.085-8.035c-0.399-1.041-1.566-1.56-2.607-1.16
			s-1.56,1.566-1.16,2.607l1.246,3.245c-6.667-2.947-19.92-7.706-36.899-8.283c-0.142-0.032-0.289-0.052-0.441-0.053
			c-17.632-0.037-31.516,4.593-38.426,7.462l1.32-3.218c0.423-1.031-0.07-2.209-1.101-2.632s-2.209,0.07-2.632,1.101l-3.266,7.963
			c-0.013,0.031-0.017,0.062-0.028,0.093c-0.023,0.066-0.043,0.132-0.06,0.201c-0.015,0.064-0.028,0.127-0.037,0.191
			c-0.009,0.063-0.014,0.126-0.017,0.189c-0.003,0.068-0.004,0.136,0,0.203c0.003,0.061,0.011,0.122,0.02,0.183
			c0.01,0.069,0.023,0.137,0.041,0.205c0.015,0.057,0.033,0.113,0.053,0.17c0.025,0.072,0.054,0.141,0.087,0.209
			c0.013,0.027,0.02,0.055,0.034,0.081c0.013,0.024,0.031,0.043,0.045,0.067c0.04,0.067,0.083,0.13,0.13,0.192
			c0.035,0.045,0.07,0.09,0.108,0.132c0.049,0.054,0.101,0.104,0.156,0.152c0.045,0.04,0.091,0.079,0.139,0.115
			c0.055,0.04,0.112,0.076,0.171,0.111c0.058,0.034,0.116,0.066,0.177,0.094c0.028,0.013,0.053,0.032,0.082,0.044l7.963,3.265
			c0.516,0.211,1.068,0.194,1.544-0.005c0.476-0.199,0.876-0.58,1.088-1.096c0.423-1.031-0.07-2.209-1.101-2.632l-3.666-1.503
			c6.355-2.645,19.603-7.156,36.21-7.292c17.044,0.354,30.56,5.297,36.971,8.137l-3.701,1.421c-1.041,0.4-1.56,1.566-1.16,2.607
			c0.2,0.52,0.591,0.91,1.063,1.12s1.023,0.24,1.544,0.04l8.035-3.085c0.025-0.01,0.045-0.025,0.069-0.035
			c0.072-0.031,0.14-0.066,0.208-0.105c0.051-0.029,0.101-0.059,0.149-0.093c0.056-0.039,0.108-0.081,0.16-0.126
			c0.051-0.044,0.1-0.089,0.147-0.137c0.041-0.043,0.079-0.089,0.117-0.136c0.048-0.06,0.092-0.121,0.132-0.185
			C112.993,41.474,113.011,41.456,113.025,41.432z"/>
		<path fill="#3E3A39" d="M94.212,77.978c0-3.629-2.953-6.581-6.583-6.581H87V49.512C87,42.567,81.325,38.5,74.381,38.5H63.585
			C56.641,38.5,51,42.567,51,49.512v8.479c-2.127,1.244-4.071,2.658-5.78,3.909c-2.205,1.614-4.705,3.444-5.858,3.444v4.036
			c2.473,0,5.019-1.863,8.242-4.223c1.07-0.783,2.211-1.611,3.397-2.405v8.646h-2.43v4.036h39.06c1.404,0,2.547,1.142,2.547,2.546
			s-1.143,2.547-2.547,2.547H85.98H73.345h-0.128v4.036h0.128H85.98c1.404,0,2.547,1.142,2.547,2.546s-1.143,2.547-2.547,2.547
			h-2.499h-7.11h-2.689v4.036h2.689h7.11c1.404,0,2.547,1.142,2.547,2.546s-1.143,2.547-2.547,2.547H70.814v4.036h8.564
			c0.31,0.559,0.654,1.411,0.57,2.389c-0.044,0.576-0.119,1.538-3.003,2.125c-13.624,2.78-25.675-0.803-32.148-2.728
			c-2.548-0.758-4.232-1.258-5.436-1.258v4.036c0.617,0,2.482,0.555,4.285,1.091c6.812,2.026,19.492,5.796,34.105,2.815
			c3.892-0.793,5.985-2.733,6.221-5.767c0.078-1.006-0.058-1.911-0.28-2.713c3.531-0.113,6.371-3.013,6.371-6.572
			c0-1.226-0.343-2.37-0.929-3.354c2.041-1.119,3.428-3.288,3.428-5.775c0-1.387-0.434-2.674-1.17-3.736
			C93.094,82.18,94.212,80.208,94.212,77.978z M55,49.512c0-4.96,3.625-7.012,8.585-7.012H74.38c4.96,0,8.619,2.052,8.619,7.012
			v21.885H55V49.512z"/>
	</g>
</g>
<g id="圖層_8" display="none">
	<path display="inline" fill="#3E3A39" d="M31.701,39.87l-3.666-1.503c6.355-2.645,19.603-7.156,36.21-7.292
		c17.044,0.354,30.56,5.297,36.971,8.137l-3.701,1.421c-1.041,0.4-1.56,1.566-1.16,2.607c0.2,0.52,0.591,0.91,1.063,1.12
		s1.023,0.24,1.544,0.04l8.035-3.085c0.025-0.01,0.045-0.025,0.069-0.035c0.072-0.031,0.14-0.066,0.208-0.105
		c0.051-0.029,0.101-0.059,0.149-0.093c0.056-0.039,0.108-0.081,0.16-0.126c0.051-0.044,0.1-0.089,0.147-0.137
		c0.041-0.043,0.079-0.089,0.117-0.136c0.048-0.06,0.092-0.121,0.132-0.185c0.015-0.023,0.033-0.042,0.047-0.066
		c0.015-0.026,0.022-0.054,0.036-0.08c0.035-0.068,0.065-0.136,0.092-0.207c0.021-0.056,0.041-0.112,0.057-0.169
		c0.019-0.067,0.033-0.134,0.045-0.203c0.011-0.062,0.019-0.122,0.024-0.184c0.005-0.067,0.006-0.133,0.004-0.201
		c-0.001-0.065-0.005-0.128-0.013-0.192c-0.008-0.063-0.019-0.126-0.033-0.189c-0.015-0.07-0.034-0.137-0.056-0.205
		c-0.01-0.031-0.013-0.062-0.025-0.092l-3.085-8.035c-0.399-1.041-1.566-1.56-2.607-1.16s-1.56,1.566-1.16,2.607l1.246,3.245
		c-6.667-2.947-19.92-7.706-36.899-8.283c-0.142-0.032-0.289-0.052-0.441-0.053c-17.632-0.037-31.516,4.593-38.426,7.462l1.32-3.218
		c0.423-1.031-0.07-2.209-1.101-2.632s-2.209,0.07-2.632,1.101l-3.266,7.963c-0.013,0.031-0.017,0.062-0.028,0.093
		c-0.023,0.066-0.043,0.132-0.06,0.201c-0.015,0.064-0.028,0.127-0.037,0.191c-0.009,0.063-0.014,0.126-0.017,0.189
		c-0.003,0.068-0.004,0.136,0,0.203c0.003,0.061,0.011,0.122,0.02,0.183c0.01,0.069,0.023,0.137,0.041,0.205
		c0.015,0.057,0.033,0.113,0.053,0.17c0.025,0.072,0.054,0.141,0.087,0.209c0.013,0.027,0.02,0.055,0.034,0.081
		c0.013,0.024,0.031,0.043,0.045,0.067c0.04,0.067,0.083,0.13,0.13,0.192c0.035,0.045,0.07,0.09,0.108,0.132
		c0.049,0.054,0.101,0.104,0.156,0.152c0.045,0.04,0.091,0.079,0.14,0.115c0.054,0.04,0.112,0.076,0.171,0.111
		c0.058,0.034,0.116,0.066,0.177,0.094c0.028,0.013,0.052,0.032,0.082,0.044l7.963,3.265c0.516,0.211,1.068,0.194,1.544-0.005
		s0.876-0.58,1.088-1.096C33.225,41.471,32.732,40.293,31.701,39.87z"/>
	<path display="inline" fill="#3E3A39" d="M87.563,86.107c0-1.387-0.434-2.674-1.17-3.736c1.701-1.191,2.819-3.162,2.819-5.392
		c0-3.629-2.953-6.581-6.583-6.581H82V48.512C82,41.567,76.325,37.5,69.381,37.5H58.585C51.641,37.5,46,41.567,46,48.512v8.479
		c-2.127,1.244-4.071,2.658-5.78,3.909c-2.205,1.614-4.705,3.444-5.858,3.444v4.036c2.473,0,5.019-1.863,8.242-4.223
		c1.07-0.783,2.211-1.611,3.397-2.405v8.646h-2.43v4.036h39.06c1.404,0,2.547,1.142,2.547,2.546s-1.143,2.547-2.547,2.547H80.98
		H68.345h-0.128v4.036h0.128H80.98c1.404,0,2.547,1.142,2.547,2.546s-1.143,2.547-2.547,2.547h-2.499h-7.11h-2.689v4.036h2.689h7.11
		c1.404,0,2.547,1.142,2.547,2.546s-1.143,2.547-2.547,2.547H65.814v4.036h8.564c0.31,0.559,0.654,1.411,0.57,2.389
		c-0.044,0.576-0.119,1.538-3.003,2.125c-13.624,2.78-25.675-0.803-32.148-2.728c-2.548-0.758-4.232-1.258-5.436-1.258v4.036
		c0.617,0,2.482,0.555,4.285,1.091c6.812,2.026,19.492,5.796,34.105,2.815c3.892-0.793,5.985-2.733,6.221-5.767
		c0.078-1.006-0.058-1.911-0.28-2.713c3.531-0.113,6.371-3.013,6.371-6.572c0-1.226-0.343-2.37-0.929-3.354
		C86.176,90.763,87.563,88.594,87.563,86.107z M50,48.512c0-4.96,3.625-7.012,8.585-7.012H69.38c4.96,0,8.619,2.052,8.619,7.012
		v21.885H50V48.512z"/>
	<path display="inline" fill="#C30D23" d="M103.192,82.531c-8.924,0-16.184,7.26-16.184,16.184s7.26,16.184,16.184,16.184
		s16.184-7.26,16.184-16.184S112.116,82.531,103.192,82.531z M93.243,104.583c-1.02-1.723-1.617-3.725-1.617-5.868
		c0-6.378,5.188-11.566,11.566-11.566c2.143,0,4.145,0.597,5.868,1.617L93.243,104.583z M112.49,91.865
		c1.418,1.92,2.267,4.284,2.267,6.849c0,6.378-5.188,11.566-11.566,11.566c-2.565,0-4.93-0.85-6.85-2.268L112.49,91.865z"/>
</g>
<g id="圖層_9" display="none">
	<g display="inline">
		<path fill="#3E3A39" d="M110.368,60.53l4.391-1.686c1.041-0.4,1.56-1.566,1.16-2.607c-0.2-0.52-0.591-0.91-1.063-1.12
			s-1.023-0.24-1.544-0.04l-8.035,3.085c-1.041,0.4-1.56,1.566-1.16,2.607l3.085,8.035c0.399,1.041,1.566,1.56,2.607,1.16
			c1.041-0.4,1.56-1.566,1.16-2.607l-1.091-2.841c16.858,3.726,22.9,8.811,22.9,12.115c0,7.581-25.999,16.027-63.306,16.027
			c-37.308,0-63.307-8.446-63.307-16.027c0-3.428,6.367-8.647,24.116-12.378l-1.278,3.115c-0.423,1.031,0.07,2.209,1.101,2.632
			c1.031,0.423,2.209-0.07,2.632-1.101l3.266-7.963c0.423-1.031-0.07-2.209-1.101-2.632l-7.963-3.265
			c-0.516-0.211-1.068-0.194-1.544,0.005s-0.876,0.58-1.088,1.096c-0.423,1.031,0.07,2.209,1.101,2.632l3.9,1.599
			c-11.052,2.348-27.142,7.306-27.142,16.26c0,13.008,34.678,20.027,67.307,20.027c32.628,0,67.306-7.02,67.306-20.027
			C136.779,67.771,120.871,62.828,110.368,60.53z M108.608,61.206l0.097-0.037l-0.039,0.189L108.608,61.206z"/>
		<path fill="#3E3A39" d="M52.359,68.259c-0.381,0.319-0.815,0.564-1.306,0.736c-0.491,0.171-0.98,0.257-1.471,0.257
			c-0.466,0-0.944-0.079-1.435-0.239c-0.49-0.159-0.956-0.435-1.397-0.827c-0.441-0.392-0.833-0.906-1.177-1.544
			c-0.343-0.638-0.601-1.435-0.771-2.391h-4.266c0.588,2.746,1.66,4.872,3.217,6.38s3.5,2.262,5.829,2.262
			c1.103,0,2.15-0.16,3.144-0.479s1.869-0.784,2.629-1.396c0.76-0.613,1.361-1.373,1.803-2.28c0.44-0.906,0.661-1.961,0.661-3.162
			c0-1.446-0.3-2.647-0.9-3.604c-0.602-0.957-1.429-1.729-2.482-2.317c1.545-1.177,2.316-2.807,2.316-4.891
			c0-0.931-0.172-1.802-0.515-2.61c-0.344-0.81-0.834-1.508-1.471-2.097c-0.638-0.588-1.41-1.048-2.316-1.379
			c-0.907-0.33-1.938-0.496-3.089-0.496c-1.227,0-2.305,0.221-3.236,0.662s-1.729,1.036-2.39,1.783
			c-0.662,0.748-1.202,1.612-1.618,2.593c-0.417,0.98-0.724,1.998-0.92,3.052h4.266c0.074-0.539,0.208-1.078,0.405-1.618
			c0.195-0.539,0.453-1.023,0.771-1.452s0.705-0.772,1.158-1.029c0.454-0.258,0.975-0.387,1.563-0.387
			c1.029,0,1.832,0.282,2.408,0.846s0.864,1.349,0.864,2.354c0,0.368-0.055,0.724-0.165,1.066c-0.11,0.344-0.295,0.65-0.552,0.919
			c-0.258,0.271-0.595,0.484-1.012,0.644s-0.932,0.239-1.544,0.239h-2.316v3.861h2.316c1.323,0,2.371,0.367,3.144,1.104
			c0.772,0.735,1.158,1.654,1.158,2.758c0,0.563-0.123,1.072-0.367,1.525C53.051,67.555,52.738,67.941,52.359,68.259z"/>
		<path fill="#3E3A39" d="M63.868,69.933c0.772,0.969,1.703,1.704,2.795,2.206c1.09,0.502,2.298,0.754,3.622,0.754
			c1.25,0,2.371-0.221,3.364-0.662s1.826-1.042,2.501-1.802c0.674-0.76,1.194-1.63,1.562-2.61c0.367-0.98,0.552-2.022,0.552-3.126
			c0-1.201-0.179-2.311-0.533-3.328c-0.356-1.017-0.871-1.899-1.545-2.647c-0.675-0.747-1.495-1.336-2.464-1.765
			s-2.065-0.644-3.291-0.644c-0.393,0-0.809,0.049-1.25,0.146c-0.441,0.099-0.883,0.258-1.324,0.479
			c-0.44,0.221-0.863,0.503-1.269,0.846c-0.404,0.344-0.766,0.772-1.084,1.287c0.073-0.98,0.226-1.912,0.459-2.795
			s0.552-1.654,0.956-2.316s0.901-1.188,1.489-1.581c0.589-0.393,1.274-0.589,2.06-0.589c0.465,0,0.906,0.099,1.323,0.294
			c0.417,0.197,0.791,0.46,1.122,0.791s0.606,0.698,0.827,1.104c0.221,0.404,0.368,0.815,0.441,1.231h3.972
			c-0.147-0.906-0.43-1.783-0.846-2.629c-0.417-0.846-0.95-1.6-1.6-2.262c-0.65-0.662-1.416-1.188-2.299-1.581
			c-0.882-0.392-1.888-0.589-3.015-0.589c-1.349,0-2.574,0.271-3.678,0.81c-1.103,0.539-2.041,1.36-2.812,2.464
			c-0.772,1.103-1.374,2.488-1.802,4.155c-0.43,1.667-0.644,3.616-0.644,5.847c0,1.838,0.208,3.475,0.625,4.909
			C62.5,67.763,63.095,68.964,63.868,69.933z M66.46,63.093c0.171-0.527,0.423-1.005,0.753-1.435
			c0.331-0.428,0.748-0.784,1.251-1.066c0.502-0.281,1.097-0.423,1.783-0.423c0.588,0,1.115,0.123,1.581,0.368
			s0.87,0.576,1.214,0.993c0.343,0.417,0.606,0.9,0.79,1.452c0.185,0.552,0.276,1.134,0.276,1.747c0,0.638-0.099,1.226-0.295,1.765
			s-0.459,1.018-0.79,1.435s-0.735,0.741-1.214,0.974c-0.478,0.233-0.986,0.35-1.525,0.35c-0.54,0-1.055-0.116-1.545-0.35
			c-0.49-0.232-0.926-0.551-1.306-0.956c-0.38-0.404-0.68-0.888-0.9-1.452c-0.221-0.563-0.331-1.177-0.331-1.839
			C66.202,64.141,66.288,63.621,66.46,63.093z"/>
		<path fill="#3E3A39" d="M84.075,69.271c0.71,1.066,1.6,1.882,2.666,2.445c1.065,0.564,2.298,0.846,3.695,0.846
			s2.635-0.281,3.714-0.846c1.078-0.563,1.979-1.379,2.703-2.445c0.723-1.066,1.269-2.347,1.636-3.843
			c0.368-1.495,0.552-3.187,0.552-5.074c0-1.863-0.184-3.549-0.552-5.057c-0.367-1.508-0.913-2.788-1.636-3.843
			c-0.724-1.054-1.625-1.869-2.703-2.445c-1.079-0.575-2.316-0.864-3.714-0.864s-2.63,0.289-3.695,0.864
			c-1.066,0.576-1.956,1.392-2.666,2.445c-0.712,1.055-1.251,2.335-1.618,3.843c-0.368,1.508-0.552,3.193-0.552,5.057
			c0,1.888,0.184,3.579,0.552,5.074C82.824,66.924,83.363,68.205,84.075,69.271z M86.335,56.474
			c0.233-1.091,0.552-1.985,0.956-2.685c0.405-0.698,0.877-1.213,1.416-1.544s1.115-0.496,1.729-0.496c1.25,0,2.304,0.68,3.162,2.04
			c0.857,1.361,1.287,3.549,1.287,6.564c0,1.52-0.116,2.819-0.35,3.897c-0.233,1.079-0.546,1.968-0.938,2.666
			c-0.393,0.698-0.864,1.214-1.416,1.545c-0.551,0.33-1.134,0.496-1.746,0.496c-0.613,0-1.189-0.166-1.729-0.496
			c-0.539-0.331-1.011-0.847-1.416-1.545c-0.404-0.698-0.723-1.587-0.956-2.666c-0.233-1.078-0.349-2.378-0.349-3.897
			C85.987,58.859,86.102,57.565,86.335,56.474z"/>
	</g>
</g>
</svg>
